<svg id="man" xmlns="http://www.w3.org/2000/svg" width="33" height="33" viewBox="0 0 33 33">
  <path id="Path_1" data-name="Path 1" d="M16.5,33A16.5,16.5,0,1,1,33,16.5,16.519,16.519,0,0,1,16.5,33Zm0-32A15.5,15.5,0,1,0,32,16.5,15.517,15.517,0,0,0,16.5,1Z" fill="#717071"/>
  <path id="Path_2" data-name="Path 2" d="M16.5,33a16.381,16.381,0,0,1-9.549-3.06.5.5,0,0,1,.116-.876c4.146-1.535,4.815-2.781,4.815-5.169a1.732,1.732,0,0,0-.4-1.214,6.587,6.587,0,0,1-1.129-2.939c-.048-.254-.089-.274-.316-.384-.606-.292-1.163-.712-1.309-2.628a2.316,2.316,0,0,1,.585-1.708c-.058-.33-.153-.9-.242-1.519C8.62,10.726,8.6,7.325,12.506,5.744c3.4-1.38,6.121-.626,6.974.273a4.478,4.478,0,0,1,3.246,1.438c1.668,1.94,1.137,6.363.955,7.562a2.243,2.243,0,0,1,.589,1.675c-.146,1.954-.7,2.375-1.31,2.666-.228.11-.269.129-.316.384a6.59,6.59,0,0,1-1.128,2.939,1.726,1.726,0,0,0-.4,1.214c0,2.388.669,3.634,4.815,5.169a.5.5,0,0,1,.116.876A16.381,16.381,0,0,1,16.5,33ZM8.317,29.651a15.428,15.428,0,0,0,16.366,0c-3.474-1.426-4.565-2.864-4.565-5.755a2.683,2.683,0,0,1,.573-1.779,5.671,5.671,0,0,0,.971-2.556,1.36,1.36,0,0,1,.865-1.1c.311-.149.631-.3.744-1.8,0-.764-.344-.972-.358-.98a.533.533,0,0,1-.264-.537c.248-1.329.656-5.474-.681-7.031a3.5,3.5,0,0,0-2.626-1.08.832.832,0,0,1-.134-.016.8.8,0,0,1-.417-.262c-.272-.466-2.641-1.4-5.91-.08-3.231,1.308-3.238,4.112-2.819,6.682.138.957.289,1.784.29,1.788a.5.5,0,0,1-.283.544h0s-.339.209-.339,1.008c.112,1.461.433,1.616.743,1.765a1.361,1.361,0,0,1,.866,1.1,5.662,5.662,0,0,0,.97,2.556,2.677,2.677,0,0,1,.574,1.779C12.883,26.788,11.792,28.226,8.317,29.651Z" fill="#717071"/>
</svg>
