<svg xmlns="http://www.w3.org/2000/svg" width="22.242" height="31.757" viewBox="0 0 22.242 31.757">
  <g id="placeholder" transform="translate(-8.203 1)">
    <path id="Path_26" data-name="Path 26" d="M24.617,12a4.06,4.06,0,1,0,4.06,4.06A4.065,4.065,0,0,0,24.617,12Zm0,6.96a2.9,2.9,0,1,1,2.9-2.9A2.9,2.9,0,0,1,24.617,18.96Z" transform="translate(-5.189 -5.46)" fill="#717071"/>
    <path id="Path_27" data-name="Path 27" d="M27.189,3.258a11.121,11.121,0,0,0-15.729,0c-3.887,3.887-4.371,11.2-1.046,15.631l8.911,12.868,8.9-12.85C31.56,14.458,31.077,7.145,27.189,3.258Zm.092,14.971-7.957,11.49L11.355,18.211c-3.015-4.02-2.583-10.625.926-14.133a9.961,9.961,0,0,1,14.088,0C29.878,7.586,30.31,14.191,27.281,18.229Z" transform="translate(0 -1)" fill="#717071"/>
  </g>
</svg>
